<?xml version="1.0" encoding="UTF-8" standalone="no"?>
<!-- Created with Inkscape (http://www.inkscape.org/) -->

<svg
   xmlns:dc="http://purl.org/dc/elements/1.1/"
   xmlns:cc="http://creativecommons.org/ns#"
   xmlns:rdf="http://www.w3.org/1999/02/22-rdf-syntax-ns#"
   xmlns:svg="http://www.w3.org/2000/svg"
   xmlns="http://www.w3.org/2000/svg"
   xmlns:sodipodi="http://sodipodi.sourceforge.net/DTD/sodipodi-0.dtd"
   xmlns:inkscape="http://www.inkscape.org/namespaces/inkscape"
   width="146.88025mm"
   height="148.16664mm"
   viewBox="0 0 146.88025 148.16664"
   version="1.1"
   id="svg7047"
   inkscape:version="0.92.1 r15371"
   sodipodi:docname="thing2.svg">
  <defs
     id="defs7041" />
  <sodipodi:namedview
     id="base"
     pagecolor="#ffffff"
     bordercolor="#666666"
     borderopacity="1.0"
     inkscape:pageopacity="0.0"
     inkscape:pageshadow="2"
     inkscape:zoom="0.7"
     inkscape:cx="139.42421"
     inkscape:cy="137.54266"
     inkscape:document-units="mm"
     inkscape:current-layer="layer1"
     showgrid="false"
     fit-margin-top="0"
     fit-margin-left="0"
     fit-margin-right="0"
     fit-margin-bottom="0"
     inkscape:window-width="1858"
     inkscape:window-height="1057"
     inkscape:window-x="-8"
     inkscape:window-y="-8"
     inkscape:window-maximized="1" />
  <metadata
     id="metadata7044">
    <rdf:RDF>
      <cc:Work
         rdf:about="">
        <dc:format>image/svg+xml</dc:format>
        <dc:type
           rdf:resource="http://purl.org/dc/dcmitype/StillImage" />
        <dc:title></dc:title>
      </cc:Work>
    </rdf:RDF>
  </metadata>
  <g
     inkscape:label="Taso 1"
     inkscape:groupmode="layer"
     id="layer1"
     transform="translate(437.80917,150.5238)">
    <path
       style="opacity:1;fill:#cd00e2;fill-opacity:1;stroke:none;stroke-width:0.5;stroke-linecap:square;stroke-miterlimit:4;stroke-dasharray:none;stroke-opacity:1"
       d="m -364.36905,-150.5238 a 31.75,31.75 0 0 0 -31.75,31.75 31.75,31.75 0 0 0 31.75,31.749988 31.75,31.75 0 0 0 0.98134,-0.0346 31.75,31.75 0 0 1 -24.89771,-36.585378 31.75,31.75 0 0 1 30.43691,-26.19271 31.75,31.75 0 0 0 -6.52054,-0.6873 z"
       id="path4525" />
    <path
       style="opacity:1;fill:#d900bc;fill-opacity:1;stroke:none;stroke-width:0.5;stroke-linecap:square;stroke-miterlimit:4;stroke-dasharray:none;stroke-opacity:1"
       d="m -348.33282,-147.93275 a 31.75,31.75 0 0 0 -31.39239,20.85299 31.75,31.75 0 0 0 18.9761,40.694168 31.75,31.75 0 0 0 0.93379,0.303343 31.75,31.75 0 0 1 -10.88306,-42.894551 31.75,31.75 0 0 1 37.55947,-14.20326 31.75,31.75 0 0 0 -5.89214,-2.8758 31.75,31.75 0 0 0 -9.30177,-1.87689 z"
       id="path4523" />
    <path
       style="opacity:1;fill:#a23eff;fill-opacity:1;stroke:none;stroke-width:0.5;stroke-linecap:square;stroke-miterlimit:4;stroke-dasharray:none;stroke-opacity:1"
       d="m -383.34463,-147.64026 a 31.75,31.75 0 0 0 -6.3624,1.5844 31.75,31.75 0 0 0 -18.97611,40.69416 31.75,31.75 0 0 0 40.69416,18.976108 31.75,31.75 0 0 0 0.91054,-0.367937 31.75,31.75 0 0 1 -35.90892,-25.863541 31.75,31.75 0 0 1 19.64273,-35.02319 z"
       id="path4521" />
    <path
       style="opacity:1;fill:#e20097;fill-opacity:1;stroke:none;stroke-width:0.5;stroke-linecap:square;stroke-miterlimit:4;stroke-dasharray:none;stroke-opacity:1"
       d="m -337.21722,-140.6195 a 31.75,31.75 0 0 0 -24.2626,11.34143 31.75,31.75 0 0 0 3.91346,44.730078 31.75,31.75 0 0 0 0.77411,0.604621 31.75,31.75 0 0 1 4.44417,-44.029869 31.75,31.75 0 0 1 40.15207,-0.50075 31.75,31.75 0 0 0 -4.55321,-4.71754 31.75,31.75 0 0 0 -20.468,-7.42797 z"
       id="path4519" />
    <path
       style="opacity:1;fill:#2a6cff;fill-opacity:1;stroke:none;stroke-width:0.5;stroke-linecap:square;stroke-miterlimit:4;stroke-dasharray:none;stroke-opacity:1"
       d="m -406.552,-136.85642 a 31.75,31.75 0 0 0 -5.43688,3.66489 31.75,31.75 0 0 0 -3.91346,44.730089 31.75,31.75 0 0 0 44.73061,3.913449 31.75,31.75 0 0 0 0.72915,-0.656788 31.75,31.75 0 0 1 -42.58913,-12.022532 31.75,31.75 0 0 1 6.47971,-39.629108 z"
       id="path4517" />
    <path
       style="opacity:1;fill:#ea0064;fill-opacity:1;stroke:none;stroke-width:0.5;stroke-linecap:square;stroke-miterlimit:4;stroke-dasharray:none;stroke-opacity:1"
       d="m -326.20911,-129.322 a 31.75,31.75 0 0 0 -17.3731,4.21835 31.75,31.75 0 0 0 -11.62151,43.371521 31.75,31.75 0 0 0 0.5209,0.832498 31.75,31.75 0 0 1 19.235,-39.854409 31.75,31.75 0 0 1 37.90208,13.26275 31.75,31.75 0 0 0 -2.66547,-5.99085 31.75,31.75 0 0 0 -25.9979,-15.83986 z"
       id="path4515" />
    <path
       style="opacity:1;fill:#007eb7;fill-opacity:1;stroke:none;stroke-width:0.5;stroke-linecap:square;stroke-miterlimit:4;stroke-dasharray:none;stroke-opacity:1"
       d="m -424.67183,-118.78517 a 31.75,31.75 0 0 0 -3.85557,5.30303 h 5.3e-4 a 31.75,31.75 0 0 0 11.62098,43.371511 31.75,31.75 0 0 0 43.37151,-11.6215 31.75,31.75 0 0 0 0.46044,-0.86714 31.75,31.75 0 0 1 -44.13271,3.26957 31.75,31.75 0 0 1 -7.46518,-39.455471 z"
       id="path4513" />
    <path
       style="opacity:1;fill:#d34800;fill-opacity:1;stroke:none;stroke-width:0.5;stroke-linecap:square;stroke-miterlimit:4;stroke-dasharray:none;stroke-opacity:1"
       d="m -322.79743,-115.54144 a 31.75,31.75 0 0 0 -5.3945,0.48214 31.75,31.75 0 0 0 -25.7545,36.781208 31.75,31.75 0 0 0 0.20464,0.960163 31.75,31.75 0 0 1 31.70607,-30.872541 31.75,31.75 0 0 1 31.07976,25.42636 31.75,31.75 0 0 0 -0.45527,-6.54068 31.75,31.75 0 0 0 -31.3862,-26.23665 z"
       id="path4511" />
    <path
       style="opacity:1;fill:#ac6700;fill-opacity:1;stroke:none;stroke-width:0.5;stroke-linecap:square;stroke-miterlimit:4;stroke-dasharray:none;stroke-opacity:1"
       d="m -323.48731,-100.82916 a 31.75,31.75 0 0 0 -30.45912,26.226311 31.75,31.75 0 0 0 -0.13642,0.97255 31.75,31.75 0 0 1 40.35309,-18.166342 31.75,31.75 0 0 1 20.50934,34.522971 31.75,31.75 0 0 0 1.80919,-6.30246 31.75,31.75 0 0 0 -25.7545,-36.78071 31.75,31.75 0 0 0 -6.32158,-0.47232 z"
       id="path4509" />
    <path
       style="opacity:1;fill:#00829c;fill-opacity:1;stroke:none;stroke-width:0.5;stroke-linecap:square;stroke-miterlimit:4;stroke-dasharray:none;stroke-opacity:1"
       d="m -435.51768,-95.60726 a 31.75,31.75 0 0 0 -1.80919,6.30247 31.75,31.75 0 0 0 25.7545,36.7807 31.75,31.75 0 0 0 36.7807,-25.754002 31.75,31.75 0 0 0 0.13643,-0.972547 31.75,31.75 0 0 1 -40.3531,18.16635 31.75,31.75 0 0 1 -20.50934,-34.522971 z"
       id="path4507" />
    <path
       style="opacity:1;fill:#957200;fill-opacity:1;stroke:none;stroke-width:0.5;stroke-linecap:square;stroke-miterlimit:4;stroke-dasharray:none;stroke-opacity:1"
       d="m -326.9579,-87.015012 a 31.75,31.75 0 0 0 -28.24582,15.866203 31.75,31.75 0 0 0 -0.46043,0.86714 31.75,31.75 0 0 1 44.1327,-3.269041 31.75,31.75 0 0 1 7.46518,39.455469 31.75,31.75 0 0 0 3.85506,-5.30356 31.75,31.75 0 0 0 -11.621,-43.371 31.75,31.75 0 0 0 -15.12569,-4.245211 z"
       id="path4505" />
    <path
       style="opacity:1;fill:#817900;fill-opacity:1;stroke:none;stroke-width:0.5;stroke-linecap:square;stroke-miterlimit:4;stroke-dasharray:none;stroke-opacity:1"
       d="m -338.02543,-75.749561 a 31.75,31.75 0 0 0 -19.54093,7.416612 31.75,31.75 0 0 0 -0.72916,0.65732 31.75,31.75 0 0 1 42.58913,12.022 31.75,31.75 0 0 1 -6.47971,39.629118 31.75,31.75 0 0 0 5.43688,-3.66489 31.75,31.75 0 0 0 3.91346,-44.730088 31.75,31.75 0 0 0 -25.18967,-11.330072 z"
       id="path4503" />
    <path
       style="opacity:1;fill:#00848b;fill-opacity:1;stroke:none;stroke-width:0.5;stroke-linecap:square;stroke-miterlimit:4;stroke-dasharray:none;stroke-opacity:1"
       d="m -374.99631,-75.563011 a 31.75,31.75 0 0 1 -31.70607,30.87255 31.75,31.75 0 0 1 -31.07976,-25.426359 31.75,31.75 0 0 0 0.45527,6.54069 31.75,31.75 0 0 0 36.7807,25.754499 31.75,31.75 0 0 0 25.7545,-36.781218 31.75,31.75 0 0 0 -0.20464,-0.960162 z"
       id="path4501" />
    <path
       style="opacity:1;fill:#00867c;fill-opacity:1;stroke:none;stroke-width:0.5;stroke-linecap:square;stroke-miterlimit:4;stroke-dasharray:none;stroke-opacity:1"
       d="m -374.05528,-71.981299 a 31.75,31.75 0 0 1 -19.235,39.854928 31.75,31.75 0 0 1 -37.90208,-13.26276 31.75,31.75 0 0 0 2.66547,5.99033 31.75,31.75 0 0 0 43.371,11.62152 31.75,31.75 0 0 0 11.62151,-43.371528 31.75,31.75 0 0 0 -0.5209,-0.83249 z"
       id="path4499" />
    <path
       style="opacity:1;fill:#00876a;fill-opacity:1;stroke:none;stroke-width:0.5;stroke-linecap:square;stroke-miterlimit:4;stroke-dasharray:none;stroke-opacity:1"
       d="m -371.94585,-68.937559 a 31.75,31.75 0 0 1 -4.44417,44.030388 31.75,31.75 0 0 1 -40.15207,0.50022 31.75,31.75 0 0 0 4.55321,4.71755 31.75,31.75 0 0 0 44.7306,-3.91346 31.75,31.75 0 0 0 -3.91345,-44.730088 31.75,31.75 0 0 0 -0.77412,-0.60461 z"
       id="path4497" />
    <path
       style="opacity:1;fill:#6a8000;fill-opacity:1;stroke:none;stroke-width:0.5;stroke-linecap:square;stroke-miterlimit:4;stroke-dasharray:none;stroke-opacity:1"
       d="m -349.20047,-68.402709 a 31.75,31.75 0 0 0 -11.54864,1.907368 31.75,31.75 0 0 0 -0.91054,0.367932 31.75,31.75 0 0 1 35.90891,25.863548 31.75,31.75 0 0 1 -19.64272,35.0231798 31.75,31.75 0 0 0 6.36241,-1.58439 31.75,31.75 0 0 0 18.97609,-40.6941598 31.75,31.75 0 0 0 -29.14551,-20.883478 z"
       id="path4495" />
    <path
       style="opacity:1;fill:#00894b;fill-opacity:1;stroke:none;stroke-width:0.5;stroke-linecap:square;stroke-miterlimit:4;stroke-dasharray:none;stroke-opacity:1"
       d="m -368.92277,-66.79867 a 31.75,31.75 0 0 1 10.88305,42.894539 31.75,31.75 0 0 1 -37.55946,14.2032598 31.75,31.75 0 0 0 5.89215,2.8758 31.75,31.75 0 0 0 40.69415,-18.9761098 31.75,31.75 0 0 0 -18.9761,-40.69416 31.75,31.75 0 0 0 -0.93379,-0.303329 z"
       id="path4493" />
    <path
       style="opacity:1;fill:#3f8700;fill-opacity:1;stroke:none;stroke-width:0.5;stroke-linecap:square;stroke-miterlimit:4;stroke-dasharray:none;stroke-opacity:1"
       d="m -364.36905,-65.857129 a 31.75,31.75 0 0 0 -0.98133,0.0346 31.75,31.75 0 0 1 24.89771,36.585368 31.75,31.75 0 0 1 -30.43691,26.1927198 31.75,31.75 0 0 0 6.52053,0.68729 31.75,31.75 0 0 0 31.75,-31.7499998 31.75,31.75 0 0 0 -31.75,-31.749999 z"
       id="path4487-8-3-1-0-9" />
  </g>
</svg>
